<svg xmlns="http://www.w3.org/2000/svg" viewBox="0 0 150 170">
  <defs>
    <filter id="a" width="109.9%" height="108.6%" x="-4.9%" y="-3.1%" filterUnits="objectBoundingBox">
      <feOffset result="shadowOffsetOuter1" in="SourceAlpha" dy="2"/>
      <feGaussianBlur stdDeviation="2" result="shadowBlurOuter1" in="shadowOffsetOuter1"/>
      <feColorMatrix values="0 0 0 0 0 0 0 0 0 0 0 0 0 0 0 0 0 0 0.2 0" result="shadowMatrixOuter1" in="shadowBlurOuter1"/>
      <feMerge>
        <feMergeNode in="shadowMatrixOuter1"/>
        <feMergeNode in="SourceGraphic"/>
      </feMerge>
    </filter>
  </defs>
  <g fill="none" fill-rule="evenodd" transform="translate(4 2)" filter="url(#a)">
    <path fill="#FFF" d="M141.5 0H0v141.5h61.74l9 20.5 9.02-20.5h61.74z"/>
    <path fill="#0088CF" d="M34.08 113.17c-.96.96-2.1 1.43-3.4 1.43-1.3 0-2.42-.47-3.38-1.43s-1.44-2.08-1.44-3.37.48-2.4 1.44-3.36 2.1-1.44 3.4-1.44c1.3 0 2.42.48 3.38 1.44s1.44 2.08 1.44 3.36c0 1.3-.48 2.4-1.44 3.37zm1.44-10.46v-1.3h4.08v16.7h-4.08V117c-1.43.98-3.04 1.47-4.83 1.48-2.5 0-4.5-.84-6.2-2.53-1.7-1.7-2.6-3.7-2.6-6.1 0-2.4.8-4.4 2.5-6.1 1.7-1.65 3.7-2.5 6.2-2.5 1.8 0 3.4.5 4.8 1.5zm12.2 10.9c.5.4 1.67.6 3.48.7l.25 4h-.87c-2.53 0-4.46-.5-5.78-1.5-1.3-1-1.97-2.8-1.97-5.4v-6h-2v-3.8h2V97h4.1v4.37h3.77v3.8h-3.76v6.04c0 1.2.26 2 .77 2.4zm13.7-12.3c4.56 0 6.84 2.7 6.84 8.1v8.8h-4.08v-7.7c0-1.9-.24-3.3-.72-4.1-.48-.8-1.44-1.2-2.9-1.2-1.13 0-2.02.4-2.67 1-.7.7-1 1.6-1 2.8v9.3h-4.1V95.7h4v7c1.2-1 2.7-1.5 4.5-1.5zm12.55 6.7a4.97 4.97 0 0 1 1.8-2.1 4.7 4.7 0 0 1 2.68-.8c2.1 0 3.58 1 4.4 3h-8.88zm4.48-6.7c2.58 0 4.68.9 6.3 2.6 1.63 1.7 2.44 3.8 2.44 6.3 0 .3-.1.7-.1 1.1H73.9c.35 1.1.94 2 1.78 2.6.83.6 1.87.9 3.1.9 1.03 0 1.9-.1 2.57-.5.7-.3 1.3-.9 1.84-1.6l3.4 1.9c-1.8 2.7-4.4 4.1-7.9 4.1-2.6 0-4.8-.8-6.5-2.4-1.7-1.6-2.6-3.7-2.6-6.1 0-2.4.8-4.4 2.5-6.1 1.7-1.64 3.7-2.5 6.2-2.5zm18.9 0c4.57 0 6.86 2.7 6.86 8.1v8.8h-4v-7.7c0-1.9-.2-3.3-.7-4.1-.4-.8-1.4-1.2-2.9-1.2-1.1 0-2 .4-2.6 1-.6.7-1 1.6-1 2.8v9.2h-4.1v-16.7H93v1.4c1.2-1 2.7-1.5 4.5-1.5zm22.78 9.4c.3.6.48 1.4.48 2.3 0 1.9-.6 3.2-2 4.2-1.3 1-3.1 1.4-5.4 1.4-2.3 0-4.1-.5-5.5-1.5-1.3-1-2-2.4-2.1-4.2h4.4c.1.8.4 1.4 1 1.8.6.5 1.4.7 2.4.7.9 0 1.5-.1 2-.5.5-.3.7-.7.7-1.2 0-.3-.1-.5-.2-.7-.1-.2-.4-.4-.8-.5a5.62 5.62 0 0 0-.9-.2l-.9-.1a2797.35 2797.35 0 0 0-1.52-.2l-1.55-.42c-1-.23-1.74-.6-2.2-.9-.43-.3-.83-.8-1.2-1.4-.33-.64-.5-1.37-.5-2.2 0-1.64.64-2.95 1.86-3.94 1.2-1 2.9-1.5 5.02-1.5s3.8.5 5.06 1.43c1.2 1 1.9 2.3 2.04 4H116a3.97 3.97 0 0 0-.24-1.06c-.1-.3-.4-.56-.8-.8-.43-.26-1.02-.4-1.76-.4-.8 0-1.4.15-1.85.4-.46.26-.7.6-.7 1.04 0 .1.04.25.08.4a.78.78 0 0 0 .24.3c.1.1.2.2.3.26s.27.2.47.2l.5.2.53.13.55.1.6.1.6.1c.96.17 1.76.35 2.42.56a9.76 9.76 0 0 1 1.9.83 3.6 3.6 0 0 1 1.45 1.5zm-7.16-42.3c-.6 1.2-1.68 2.9-2.67 3.9H31c-.6-.8-1.98-2.5-2.57-3.8h84.55zm-5.92 7.9c-1 1.4-2.48 2.7-4.05 3.6H38c-1.27-.9-2.56-2.2-3.74-3.5h72.8zm-9 7.3c-7 5.3-14.7 7.9-20.53 8.3 0-2.2 0-5.1.6-8.3h19.94zm22.33-41.1c.6 6.5-1.48 14.3-5.43 22.2H85.7c1.1-1.8 2.48-3.6 4.07-5.4 8.5-9.9 21.52-16.1 30.6-16.7zm-56.7 49.4c-5.62-.4-13.32-3-20.44-8.3H63.4c.4 3.2.4 6.1.3 8.3zm13.24-8.3c-1.97 3.8-4.15 6.7-6.22 8.9-2.27-2.2-4.24-5.1-6.32-8.9h12.54zm-21.12-19H26.45c-3.96-7.9-5.93-15.7-5.34-22.1 9 .6 22.2 6.7 30.7 16.7 1.5 1.8 3 3.6 4.1 5.5zm27.55 0h-25.3c-.38-2.2-.38-4.4-.38-7 0-13.8 6.12-28.1 13.03-34.5 6.82 6.5 13.04 20.8 13.04 34.6 0 2.5-.2 4.7-.4 7z"/>
  </g>
</svg>
