<svg xmlns="http://www.w3.org/2000/svg" viewBox="0 0 95 92">
  <path fill="#FFF" fill-rule="evenodd" d="M8.34 91.43C3.74 91.43 0 87.7 0 83.16c0-4.64 3.75-8.26 8.34-8.26 1.78 0 3.47.47 4.88 1.4v-1.2h3.93v15.95h-3.93v-1.02c-1.4.84-3 1.4-4.88 1.4zm-4.5-8.27c0 2.42 2.16 4.55 4.6 4.55 2.62 0 4.78-2.12 4.78-4.54 0-2.5-2.16-4.64-4.8-4.64-2.42 0-4.58 2.14-4.58 4.64zm23.05 8.27c-4.6 0-8.44-3.72-8.44-8.27 0-4.64 3.84-8.26 8.43-8.26 1.77 0 3.37.47 4.77 1.4v-6.7h4.03v21.45h-4.03v-1.02c-1.4.84-3 1.4-4.78 1.4zm-4.6-8.27c0 2.42 2.16 4.55 4.78 4.55 2.44 0 4.6-2.12 4.6-4.54 0-2.5-2.16-4.64-4.6-4.64-2.62 0-4.78 2.14-4.78 4.64zm15.37 7.9h3.93V75.08h-3.93v15.95zm0-17.46h3.93v-4h-3.93v4zm18.75-4h3.93v21.45h-3.93v-1.02a9 9 0 0 1-4.78 1.4c-4.6 0-8.34-3.72-8.34-8.27 0-4.64 3.74-8.26 8.34-8.26 1.77 0 3.37.47 4.78 1.4v-6.7zm-9.28 13.56c0 2.42 2.15 4.55 4.6 4.55 2.52 0 4.68-2.12 4.68-4.54 0-2.5-2.16-4.64-4.7-4.64-2.43 0-4.58 2.14-4.58 4.64zm22.95 8.27c-4.6 0-8.44-3.72-8.44-8.27 0-4.64 3.84-8.26 8.44-8.26 1.78 0 3.37.47 4.7 1.4v-1.2h4v15.95h-4v-1.02c-1.33.84-2.92 1.4-4.7 1.4zm-4.5-8.27c0 2.42 2.16 4.55 4.7 4.55 2.42 0 4.5-2.12 4.5-4.54 0-2.5-2.08-4.64-4.5-4.64-2.54 0-4.7 2.14-4.7 4.64zm22.04 8.27c3.93 0 7.22-1.6 7.22-5.5 0-2.2-1.6-3.7-4.13-4.35-2.62-.65-6-.55-6-2.22.2-1.12 1.22-1.4 2.8-1.4 2.45 0 2.54 1.3 2.64 2.14h4.03c-.28-3.06-2.82-5.2-6.84-5.2-4.22 0-6.66 2.23-6.66 5.1 0 1.68.84 3.16 2.25 3.9 1.03.47 2.44.84 4.13 1.12 1.78.18 3.37.37 3.47 1.58 0 .83-.85 1.86-2.72 1.86-2.72 0-3.3-1.5-3.3-2.52h-4.2c.1 3.25 2.8 5.5 7.3 5.5zM59.7 39.07c.18-2.13.37-4.17.37-6.6C60.07 19.5 54.17 6.04 47.7 0c-6.56 6.03-12.37 19.5-12.37 32.48 0 2.42 0 4.46.37 6.6h24zm-26.15 0c-1.03-1.76-2.44-3.43-3.84-5.1C21.65 24.6 9.2 18.84.67 18.27c-.57 6.05 1.3 13.38 5.05 20.8h27.85zM47.7 65.25c1.97-2.04 4.03-4.83 5.9-8.36H41.7c1.97 3.52 3.85 6.3 6 8.35zm-6.65-.56c.1-2.05.1-4.83-.3-7.8h-19.1c6.75 4.9 14.05 7.42 19.4 7.8zm53.8-46.42c-8.63.56-21 6.32-29.06 15.7-1.5 1.66-2.82 3.33-3.86 5.1h27.74c3.75-7.43 5.7-14.76 5.16-20.8zm-21.2 38.6H54.74c-.56 3-.56 5.77-.56 7.8 5.52-.36 12.84-2.87 19.5-7.8zm8.53-6.85H13.13c1.12 1.3 2.34 2.5 3.56 3.34h61.67c1.5-.84 2.9-2.04 3.84-3.34zm5.63-7.43c-.55 1.12-1.6 2.7-2.53 3.62H10.03c-.57-.74-1.88-2.4-2.44-3.62h80.2z"/>
</svg>
