<svg xmlns="http://www.w3.org/2000/svg" viewBox="0 0 577 590"><path fill="#0D80C3" fill-rule="evenodd" d="M123.63-2l-.25 4.5 4.48-.28-.26 4.5 4.48-.28-.26 4.5 4.5-.27-.28 4.48 4.5-.26-.27 4.47 4.48-.26-.26 4.5 4.47-.27-.26 4.5 4.5-.28-.27 4.5 4.5-.27-.28 4.48 4.5-.26-.27 4.48 4.48-.26-.26 4.48 4.48-.26-.26 4.5 4.48-.28-.26 4.5 4.5-.28-.28 4.5 4.5-.27-.27 4.5 4.47-.27-.26 4.48 4.5-.25-.27 4.5 4.5-.28-.28 4.5 4.5-.28-.28 4.48 4.5-.26-.27 4.48 4.48-.26-.26 4.48 4.48-.26-.26 4.5 4.48-.28-.26 4.5 4.5-.28-.28 4.5 4.5-.27-.28 4.48 4.5-.25-.27 4.48 4.48-.26-.25 4.5 4.48-.28-.26 4.48 4.5-.27-.28 4.5 4.48-.26-.27 4.48 4.5-.26-.26 4.48 4.48-.26-.26 4.5 4.48-.28-.26 4.5 4.5-.28-.28 4.5 4.5-.27-.28 4.48 4.5-.26-.27 4.48 4.48-.26-.26 4.48 4.48-.27-.26 4.5 4.47-.27-.26 4.5 4.5-.27-.27 4.48 4.5-.26-.27 4.48 4.48-.26-.26 4.48 4.48-.26-.26 4.5 4.5-.28-.28 4.5 4.5-.28-.28 4.5 4.5-.27-.27 4.47 4.48-.26-.26 4.5 4.47-.27-.26 4.5 4.5-.28-.27 4.5 4.5-.28-.28 4.5 4.5-.27-.27 4.48 4.48-.26-.26 4.48 4.48-.26-.26 4.5 4.48-.28-.26 4.5 4.5-.28-.28 4.5 4.5-.27-.27 4.5 4.47-.27-.26 4.48 4.5-.25-.27 4.5 4.48-.28-.25 4.5 4.5-.28-.28 4.48 4.5-.26-.28 4.48 4.48-.26-.26 4.48 4.48-.26-.26 4.5 4.48-.28-.26 4.5 4.5-.28-.28 4.5 4.5-.27-.28 4.48 4.5-.25-.27 4.48 4.48-.26-.25 4.5 4.5-.28-.28 4.48 4.5-.27-.28 4.5 4.48-.26-.27 4.48 4.5-.26-.26 4.48 4.48-.26-.26 4.5 4.5-.28-.28 4.5 4.5-.28-.28 4.5 4.5-.27-.28 4.48 4.5-.26-.27 4.48 4.48-.26-.26 4.48 4.48-.27-.26 4.5 4.48-.27-.27 4.5 4.5-.27-.27 4.48 4.5-.26-.27 4.48 4.48-.26-.26 4.48 4.48-.26-.26 4.5 4.5-.28-.28 4.5 4.5-.28-.28 4.5 4.5-.27-.27 4.47 4.48-.26-.26 4.5 4.47-.27-.26 4.5 4.5-.28-.27 4.5 4.5-.28-.28 4.5 4.5-.27-.27 4.48 4.48-.26-.26 4.48 4.48-.26-.26 4.5 4.5-.28-.28 4.5 4.5-.28-.28 4.5 4.5-.27-.27 4.5 4.47-.27-.26 4.48 4.5-.25-.27 4.5 4.5-.28-.28 4.5 4.5-.28-.28 4.48 4.5-.26-.28 4.48 4.48-.26-.26 4.48 4.48-.26-.26 4.5 4.48-.28-.26 4.5 4.5-.28-.28 4.5 4.5-.27-.28 4.48 4.5-.25-.27 4.48 4.48-.26-.25 4.5 4.48-.28-.26 4.48 4.5-.27-.28 4.5 4.48-.26-.27 4.48 4.5-.26-.26 4.48 4.48-.26-.26 4.5 4.48-.28-.26 4.5 4.5-.28-.28 4.5 4.5-.27-.28 4.48 4.5-.26-.27 4.48 4.48-.26-.26 4.47 4.48-.26-.26 4.5 4.48-.27-.27 4.5 4.5-.28-.27 4.5 4.5-.27-.27 4.48 4.48-.26-.26 4.5 4.48-.28-.26 4.5 4.48-.28-.26 4.5 4.5-.27-.28 4.48 4.5-.26-.27 4.47 4.48-.26-.26 4.5 4.47-.27-.26 4.5 4.5-.28-.27 4.5 4.5-.28-.28 4.5 4.5-.27-.27 4.48 4.48-.26-.26 4.48 4.48-.26-.26 4.5 4.48-.28-.26 4.5 4.5-.28-.28 4.5 4.5-.27-.28 4.5 4.5-.27-.27 4.48 4.5-.25-.27 4.5 4.5-.28-.28 4.5 4.5-.28-.28 4.48 4.5-.26-.28 4.48 4.48-.26-.26 4.48 4.48-.26-.26 4.5 4.48-.28-.26 4.5-11.9 11.88-4.48.26.27-4.48-4.5.26.27-4.48-4.48.26.26-4.5-4.48.28.26-4.5-4.5.28.28-4.5-4.5.27.28-4.47-4.5.26.27-4.5-4.47.27.26-4.5-4.5.28.27-4.5-4.5.28.28-4.5-4.5.27.28-4.48-4.5.26.27-4.48-4.48.26.26-4.5-4.48.28.26-4.5-4.5.28.28-4.5-4.5.27.28-4.5-4.5.27.27-4.48-4.5.25.27-4.48-4.48.26.25-4.5-4.5.28.28-4.48-4.5.27.28-4.5-4.48.26.27-4.48-4.5.26.26-4.48-4.48.26.26-4.5-4.48.28.26-4.5-4.5.28.28-4.5-4.5.27.28-4.48-4.5.26.27-4.48-4.48.26.26-4.48-4.5.27.28-4.5-4.48.27.27-4.5-4.5.27.27-4.48-4.5.26.27-4.48-4.48.26.26-4.5-4.48.28.26-4.5-4.5.28.28-4.5-4.5.27.28-4.48-4.5.26.27-4.47-4.48.26.26-4.5-4.47.27.26-4.5-4.5.28.27-4.5-4.5.27.28-4.48-4.5.26.27-4.48-4.48.26.26-4.5-4.48.28.26-4.5-4.48.28.26-4.5-4.5.27.28-4.47-4.5.26.27-4.5-4.47.27.26-4.5-4.5.28.27-4.5-4.48.28.25-4.5-4.5.27.28-4.48-4.5.26.27-4.48-4.48.26.26-4.48-4.48.26.26-4.5-4.48.28.26-4.5-4.5.28.28-4.5-4.5.27.28-4.48-4.5.25.27-4.48-4.48.26.25-4.5-4.48.28.26-4.48-4.5.27.28-4.5-4.48.26.27-4.48-4.5.26.26-4.48-4.48.26.26-4.5-4.48.28.26-4.5-4.5.28.28-4.5-4.5.27.28-4.48-4.5.26.27-4.48-4.48.26.26-4.48-4.48.27.26-4.5-4.47.27.26-4.5-4.5.27.27-4.48-4.5.26.27-4.48-4.48.26.26-4.5-4.48.28.26-4.5-4.5.28.28-4.5-4.5.27.28-4.48-4.5.26.27-4.47-4.48.26.26-4.5-4.47.27.26-4.5-4.5.28.27-4.5-4.5.27.28-4.48-4.5.26.27-4.48-4.48.26.26-4.5-4.48.28.26-4.5-4.48.28.26-4.5-4.5.27.28-4.47-4.5.26.27-4.5-4.47.27.26-4.5-4.5.28.27-4.5-4.48.28.25-4.5-4.5.27.28-4.48-4.5.26.28-4.48-4.48.26.26-4.48-4.48.26.26-4.5-4.48.28.26-4.5-4.5.28.28-4.5-4.5.27.28-4.48-4.5.25.27-4.5-4.48.28.25-4.5-4.5.28.28-4.48-4.5.26.28-4.48-4.48.26.27-4.48-4.5.26.26-4.48-4.48.26.26-4.5-4.5.28.28-4.5-4.5.28.28-4.5-4.5.27.28-4.48-4.5.26.27-4.48-4.48.26.26-4.48-4.48.27.26-4.5-4.48.27.27-4.5-4.5.27.27-4.48-4.5.26.27-4.48-4.48.26.26-4.5-4.48.28.26-4.5-4.48.28.26-4.5-4.5.27.28-4.48-4.5.26.27-4.47-4.48.26.26-4.5-4.47.27.26-4.5-4.5.28.27-4.5-4.5.27.28-4.48-4.5.26.27-4.48-4.48.26.26-4.5-4.48.28.26-4.5-4.48.28.26-4.5-4.5.27.28-4.47-4.5.26.28-4.5-4.5.27.27-4.48-4.5.25.27-4.5-4.48.28.25-4.5-4.5.28.28-4.48-4.5.26.28-4.48-4.48.26.26-4.5-4.48.28.26-4.5-4.48.28.26-4.5-4.5.27.28-4.5-4.5.27.28-4.48-4.5.25.27-4.48-4.48.26.25-4.5-4.48.28.26-4.48-4.5.27.28-4.5-4.48.26.27-4.48-4.5.26.26-4.48 11.9-11.9 4.47-.26zm-54 0l-.25 4.5 4.48-.28-.26 4.5 4.48-.28-.26 4.5 4.5-.27-.28 4.48 4.5-.26-.27 4.47 4.48-.26-.26 4.5 4.47-.27-.26 4.5 4.5-.28-.27 4.5 4.5-.27-.28 4.48 4.5-.26-.27 4.48 4.48-.26-.26 4.48 4.48-.26-.26 4.5 4.5-.28-.28 4.5 4.5-.28-.28 4.5 4.5-.27-.27 4.5 4.47-.27-.26 4.48 4.5-.25-.27 4.5 4.48-.28-.25 4.5 4.5-.28-.28 4.48 4.5-.26-.28 4.48 4.48-.26-.26 4.48 4.48-.26-.26 4.5 4.48-.28-.26 4.5 4.5-.28-.28 4.5 4.5-.27-.28 4.48 4.5-.25-.27 4.48 4.48-.26-.25 4.5 4.48-.28-.26 4.48 4.5-.27-.28 4.5 4.48-.26-.27 4.48 4.5-.26-.26 4.48 4.48-.26-.26 4.5 4.48-.28-.26 4.5 4.5-.28-.28 4.5 4.5-.27-.28 4.48 4.5-.26-.27 4.48 4.48-.26-.26 4.48 4.48-.27-.26 4.5 4.47-.27-.26 4.5 4.5-.27-.27 4.48 4.5-.26-.27 4.48 4.48-.26-.26 4.48 4.48-.26-.26 4.5 4.5-.28-.28 4.5 4.5-.28-.28 4.5 4.5-.27-.27 4.47 4.48-.26-.26 4.5 4.47-.27-.26 4.5 4.5-.28-.27 4.5 4.5-.28-.28 4.5 4.5-.27-.27 4.48 4.48-.26-.26 4.48 4.48-.26-.26 4.5 4.48-.28-.26 4.5 4.5-.28-.28 4.5 4.5-.27-.28 4.5 4.5-.27-.27 4.48 4.5-.25-.27 4.5 4.48-.28-.25 4.5 4.5-.28-.28 4.48 4.5-.26-.28 4.48 4.48-.26-.26 4.48 4.48-.26-.26 4.5 4.48-.28-.26 4.5 4.5-.28-.28 4.5 4.5-.27-.28 4.48 4.5-.25-.27 4.48 4.48-.26-.25 4.5 4.48-.28-.26 4.48 4.5-.27-.28 4.5 4.48-.26-.27 4.48 4.5-.26-.26 4.48 4.48-.26-.26 4.5 4.48-.28-.26 4.5 4.5-.28-.28 4.5 4.5-.27-.28 4.48 4.5-.26-.27 4.48 4.48-.26-.26 4.48 4.48-.27-.26 4.5 4.48-.27-.27 4.5 4.5-.27-.27 4.48 4.5-.26-.27 4.48 4.48-.26-.26 4.48 4.48-.26-.26 4.5 4.5-.28-.28 4.5 4.5-.28-.28 4.5 4.5-.27-.27 4.47 4.48-.26-.26 4.5 4.47-.27-.26 4.5 4.5-.28-.27 4.5 4.5-.28-.28 4.5 4.5-.27-.27 4.48 4.48-.26-.26 4.48 4.48-.26-.26 4.5 4.5-.28-.28 4.5 4.5-.28-.28 4.5 4.5-.27-.27 4.5 4.47-.27-.26 4.48 4.5-.25-.27 4.5 4.5-.28-.28 4.5 4.5-.28-.28 4.48 4.5-.26-.27 4.48 4.48-.26-.26 4.48 4.48-.26-.26 4.5 4.5-.28-.28 4.5 4.5-.28-.28 4.5 4.5-.27-.27 4.48 4.5-.25-.27 4.48 4.48-.26-.25 4.5 4.48-.28-.26 4.48 4.5-.27-.28 4.5 4.48-.26-.27 4.48 4.5-.26-.26 4.48 4.48-.26-.26 4.5 4.48-.28-.26 4.5 4.5-.28-.28 4.5 4.5-.27-.28 4.48 4.5-.26-.27 4.48 4.48-.26-.26 4.47 4.48-.26-.26 4.5 4.48-.27-.27 4.5 4.5-.28-.27 4.5 4.5-.27-.27 4.48 4.48-.26-.26 4.5 4.48-.28-.26 4.5 4.48-.28-.26 4.5 4.5-.27-.28 4.48 4.5-.26-.27 4.47 4.48-.26-.26 4.5 4.47-.27-.26 4.5 4.5-.28-.27 4.5 4.5-.28-.28 4.5 4.5-.27-.28 4.48 4.5-.26-.27 4.48 4.48-.26-.26 4.5 4.48-.28-.26 4.5 4.5-.28-.28 4.5 4.5-.27-.28 4.5 4.5-.27-.27 4.48 4.5-.25-.27 4.5 4.5-.28-.28 4.5 4.5-.28-.28 4.48 4.5-.26-.28 4.48 4.48-.26-.26 4.48 4.48-.26-.26 4.5 4.48-.28-.26 4.5-11.9 11.88-4.48.26.27-4.48-4.5.26.27-4.48-4.48.26.26-4.5-4.48.28.26-4.5-4.5.28.28-4.5-4.5.27.28-4.47-4.5.26.27-4.5-4.47.27.26-4.5-4.5.28.27-4.5-4.5.28.28-4.5-4.5.27.28-4.48-4.5.26.27-4.48-4.48.26.26-4.5-4.48.28.26-4.5-4.5.28.28-4.5-4.5.27.28-4.5-4.5.27.27-4.48-4.5.25.27-4.48-4.48.26.25-4.5-4.5.28.28-4.48-4.5.27.28-4.5-4.48.26.26-4.48-4.48.26.26-4.48-4.48.26.26-4.5-4.48.28.26-4.5-4.5.28.28-4.5-4.5.27.28-4.48-4.5.26.27-4.48-4.48.26.26-4.48-4.5.27.28-4.5-4.48.27.27-4.5-4.5.27.27-4.48-4.5.26.27-4.48-4.48.26.26-4.5-4.48.28.26-4.5-4.5.28.28-4.5-4.5.27.28-4.48-4.5.26.27-4.47-4.48.26.26-4.5-4.47.27.26-4.5-4.5.28.27-4.5-4.5.27.28-4.48-4.5.26.27-4.48-4.48.26.26-4.5-4.48.28.26-4.5-4.5.28.28-4.5-4.5.27.28-4.47-4.5.26.27-4.5-4.47.27.26-4.5-4.5.28.27-4.5-4.5.28.28-4.5-4.5.27.28-4.48-4.5.26.27-4.48-4.48.26.26-4.48-4.48.26.26-4.5-4.5.28.28-4.5-4.5.28.28-4.5-4.5.27.28-4.48-4.5.25.27-4.48-4.48.26.25-4.5-4.48.28.26-4.48-4.5.27.28-4.5-4.48.26.27-4.48-4.5.26.26-4.48-4.48.26.26-4.5-4.5.28.28-4.5-4.5.28.28-4.5-4.5.27.28-4.48-4.5.26.27-4.48-4.48.26.26-4.48-4.48.27.26-4.5-4.48.27.27-4.5-4.5.27.27-4.48-4.5.26.27-4.48-4.48.26.26-4.5-4.48.28.26-4.5-4.5.28.28-4.5-4.5.27.28-4.48-4.5.26.27-4.47-4.48.26.26-4.5-4.47.27.26-4.5-4.5.28.27-4.5-4.5.27.28-4.48-4.5.26.27-4.48-4.48.26.26-4.5-4.48.28.26-4.5-4.48.28.26-4.5-4.5.27.28-4.47-4.5.26.27-4.5-4.47.27.26-4.5-4.5.28.27-4.5-4.5.28.28-4.5-4.5.27.28-4.48-4.5.26.28-4.48-4.48.26.26-4.48-4.48.26.26-4.5-4.48.28.26-4.5-4.5.28.28-4.5-4.5.27.27-4.48-4.5.25.27-4.5-4.48.28.25-4.5-4.48.28.26-4.48-4.5.26.28-4.48-4.48.26.27-4.48-4.5.26.26-4.48-4.48.26.26-4.5-4.48.28.26-4.5-4.5.28.28-4.5-4.5.27.28-4.48-4.5.26.27-4.48-4.48.26.26-4.48-4.48.27.26-4.5-4.48.27.27-4.5-4.5.27.27-4.48-4.5.26.27-4.48-4.48.26.26-4.5-4.48.28.26-4.5-4.5.28.28-4.5-4.5.27.28-4.48-4.5.26.27-4.47-4.48.26.26-4.5-4.47.27.26-4.5-4.5.28.27-4.5-4.5.27.28-4.48-4.5.26.27-4.48-4.48.26.26-4.5-4.48.28.26-4.5-4.48.28.26-4.5-4.5.27.28-4.47-4.5.26.28-4.5-4.5.27.27-4.48-4.5.25.27-4.5-4.48.28.25-4.5-4.5.28.28-4.48-4.5.26.27-4.48-4.48.26.26-4.5-4.48.28.26-4.5-4.48.28.26-4.5-4.5.27.28-4.5-4.5.27.28-4.48-4.5.25.27-4.48-4.48.26.25-4.5-4.48.28.26-4.48-4.5.27.28-4.5-4.48.26.27-4.48-4.5.26.26-4.48 11.9-11.9L69.63-2zm-53 1l-.25 4.5 4.48-.28-.26 4.5 4.48-.28-.26 4.5 4.5-.27-.28 4.48 4.5-.26-.27 4.47 4.48-.26-.26 4.5 4.47-.27-.26 4.5 4.5-.28-.27 4.5 4.5-.27-.28 4.48 4.5-.26-.27 4.48 4.48-.26-.26 4.48 4.48-.26-.26 4.5 4.48-.28-.26 4.5 4.5-.28-.28 4.5 4.5-.27-.27 4.5 4.47-.27-.26 4.48 4.5-.25-.27 4.5 4.5-.28-.28 4.5 4.5-.28-.28 4.48 4.5-.26-.28 4.48 4.48-.26-.26 4.48 4.48-.26-.26 4.5 4.48-.28-.26 4.5 4.5-.28-.28 4.5 4.5-.27-.28 4.48 4.5-.25-.27 4.48 4.48-.26-.25 4.5 4.5-.28-.28 4.48 4.5-.27-.28 4.5 4.48-.26-.27 4.48 4.5-.26-.26 4.48 4.48-.26-.26 4.5 4.48-.28-.26 4.5 4.5-.28-.28 4.5 4.5-.27-.28 4.48 4.5-.26-.27 4.48 4.48-.26-.26 4.48 4.48-.27-.26 4.5 4.47-.27-.26 4.5 4.5-.27-.27 4.48 4.5-.26-.27 4.48 4.48-.26-.26 4.48 4.48-.26-.26 4.5 4.5-.28-.28 4.5 4.5-.28-.28 4.5 4.5-.27-.27 4.47 4.48-.26-.26 4.5 4.47-.27-.26 4.5 4.5-.28-.27 4.5 4.5-.28-.28 4.5 4.5-.27-.27 4.48 4.48-.26-.26 4.48 4.48-.26-.26 4.5 4.5-.28-.28 4.5 4.5-.28-.28 4.5 4.5-.27-.28 4.5 4.5-.27-.27 4.48 4.5-.25-.27 4.5 4.5-.28-.28 4.5 4.5-.28-.28 4.48 4.5-.26-.28 4.48 4.48-.26-.26 4.48 4.48-.26-.26 4.5 4.5-.28-.28 4.5 4.5-.28-.28 4.5 4.5-.27-.27 4.48 4.5-.25-.27 4.48 4.48-.26-.25 4.5 4.48-.28-.26 4.48 4.5-.27-.28 4.5 4.48-.26-.27 4.48 4.5-.26-.26 4.48 4.48-.26-.26 4.5 4.48-.28-.26 4.5 4.5-.28-.28 4.5 4.5-.27-.27 4.48 4.48-.26-.25 4.48 4.48-.26-.26 4.48 4.48-.27-.26 4.5 4.48-.27-.27 4.5 4.5-.27-.27 4.48 4.5-.26-.27 4.48 4.48-.26-.26 4.48 4.48-.26-.26 4.5 4.5-.28-.28 4.5 4.5-.28-.27 4.5 4.48-.27-.26 4.47 4.48-.26-.26 4.5 4.47-.27-.26 4.5 4.5-.28-.27 4.5 4.5-.28-.28 4.5 4.5-.27-.27 4.48 4.48-.26-.26 4.48 4.48-.26-.26 4.5 4.5-.28-.28 4.5 4.5-.28-.27 4.5 4.48-.27-.26 4.5 4.47-.27-.26 4.48 4.5-.25-.27 4.5 4.5-.28-.28 4.5 4.5-.28-.28 4.48 4.5-.26-.27 4.48 4.48-.26-.26 4.48 4.48-.26-.26 4.5 4.5-.28-.28 4.5 4.5-.28-.28 4.5 4.5-.27-.27 4.48 4.5-.25-.27 4.48 4.48-.26-.25 4.5 4.48-.28-.26 4.48 4.5-.27-.28 4.5 4.48-.26-.26 4.48 4.48-.26-.26 4.48 4.48-.26-.26 4.5 4.48-.28-.26 4.5 4.5-.28-.28 4.5 4.5-.27-.28 4.48 4.5-.26-.27 4.48 4.48-.26-.26 4.47 4.48-.26-.26 4.5 4.48-.27-.27 4.5 4.5-.28-.27 4.5 4.5-.27-.27 4.48 4.48-.26-.26 4.5 4.48-.28-.26 4.5 4.5-.28-.28 4.5 4.5-.27-.28 4.48 4.5-.26-.27 4.47 4.48-.26-.26 4.5 4.47-.27-.26 4.5 4.5-.28-.27 4.5 4.5-.28-.27 4.5 4.48-.27-.26 4.48 4.48-.26-.26 4.48 4.48-.26-.26 4.5 4.5-.28-.28 4.5 4.5-.28-.28 4.5 4.5-.27-.27 4.5 4.47-.27-.26 4.48 4.5-.25-.27 4.5 4.5-.28-.28 4.5 4.5-.28-.28 4.48 4.5-.26-.27 4.48 4.48-.26-.26 4.48 4.48-.26-.26 4.5 4.48-.28-.26 4.5-11.9 11.88-4.48.26.27-4.48-4.5.26.27-4.48-4.48.26.26-4.5-4.48.28.26-4.5-4.48.28.26-4.5-4.5.27.28-4.47-4.5.26.27-4.5-4.47.27.26-4.5-4.5.28.27-4.5-4.48.28.25-4.5-4.5.27.28-4.48-4.5.26.28-4.48-4.48.26.26-4.5-4.48.28.26-4.5-4.48.28.26-4.5-4.5.27.28-4.5-4.5.27.28-4.48-4.5.25.27-4.48-4.48.26.25-4.5-4.48.28.26-4.48-4.5.27.28-4.5-4.48.26.27-4.48-4.5.26.26-4.48-4.48.26.26-4.5-4.48.28.26-4.5-4.5.28.28-4.5-4.5.27.28-4.48-4.5.26.28-4.48-4.5.26.27-4.48-4.48.27.26-4.5-4.48.27.27-4.5-4.5.27.27-4.48-4.5.26.27-4.48-4.48.26.26-4.5-4.48.28.26-4.5-4.48.28.26-4.5-4.5.27.28-4.48-4.5.26.27-4.47-4.48.26.26-4.5-4.47.27.26-4.5-4.5.28.27-4.5-4.5.27.28-4.48-4.5.26.27-4.48-4.48.26.26-4.5-4.48.28.26-4.5-4.48.28.26-4.5-4.5.27.28-4.47-4.5.26.28-4.5-4.5.27.27-4.5-4.5.28.27-4.5-4.48.28.25-4.5-4.5.27.28-4.48-4.5.26.28-4.48-4.48.26.26-4.48-4.48.26.26-4.5-4.48.28.26-4.5-4.5.28.28-4.5-4.5.27.28-4.48-4.5.25.27-4.48-4.48.26.25-4.5-4.48.28.26-4.48-4.5.27.28-4.5-4.48.26.26-4.48-4.48.26.26-4.48-4.48.26.26-4.5-4.5.28.28-4.5-4.5.28.28-4.5-4.5.27.28-4.48-4.5.26.27-4.48-4.48.26.26-4.48-4.48.27.26-4.5-4.47.27.26-4.5-4.5.27.27-4.48-4.5.26.27-4.48-4.48.26.26-4.5-4.48.28.26-4.5-4.5.28.28-4.5-4.5.27.28-4.48-4.5.26.27-4.47-4.48.26.26-4.5-4.47.27.26-4.5-4.5.28.27-4.5-4.5.27.28-4.48-4.5.26.27-4.48-4.48.26.26-4.5-4.48.28.26-4.5-4.5.28.28-4.5-4.5.27.28-4.47-4.5.26.27-4.5-4.47.27.26-4.5-4.5.28.27-4.5-4.48.28.25-4.5-4.5.27.28-4.48-4.5.26.27-4.48-4.48.26.26-4.48-4.48.26.26-4.5-4.48.28.26-4.5-4.5.28.28-4.5-4.5.27.27-4.48-4.5.25.27-4.5-4.48.28.25-4.5-4.5.28.28-4.48-4.5.26.28-4.48-4.48.26.27-4.48-4.5.26.26-4.48-4.48.26.26-4.5-4.48.28.26-4.5-4.48.28.26-4.5-4.5.27.28-4.48-4.5.26.27-4.48-4.48.26.26-4.48-4.48.27.26-4.5-4.48.27.27-4.5-4.5.27.27-4.48-4.5.26.27-4.48-4.48.26.26-4.5-4.48.28.26-4.5-4.48.28.26-4.5-4.5.27.28-4.48-4.5.26.27-4.47-4.48.26.26-4.5-4.47.27.26-4.5-4.5.28.27-4.5-4.5.27.28-4.48-4.5.26.27-4.48-4.48.26.26-4.5-4.48.28.26-4.5-4.5.28.28-4.5-4.5.27.28-4.47-4.5.26.28-4.5-4.5.27.27-4.48-4.5.25.27-4.5-4.48.28.25-4.5-4.5.28.28-4.48-4.5.26.28-4.48-4.48.26.26-4.5-4.48.28.26-4.5-4.48.28.26-4.5-4.5.27.28-4.5-4.5.27.28-4.48-4.5.25.27-4.48-4.48.26.25-4.5-4.48.28.26-4.48-4.5.27.28-4.5-4.48.26.27-4.48-4.5.26.26-4.48 11.9-11.9L16.63-1z"/></svg>