<svg xmlns="http://www.w3.org/2000/svg" viewBox="0 0 530 530">
  <path fill="#0D80C3" fill-rule="evenodd" d="M629.83 39.63l-4.5-.25.27 4.48-4.48-.26.26 4.5-4.48-.28.26 4.5-4.5-.28.28 4.5-4.5-.27.28 4.48-4.5-.26.27 4.47-4.5-.26.27 4.5-4.48-.27.25 4.5-4.5-.28.28 4.5-4.5-.27.28 4.48-4.48-.26.26 4.48-4.48-.26.26 4.5-4.48-.28.26 4.5-4.48-.28.26 4.5-4.5-.27.28 4.47-4.5-.26.28 4.5-4.5-.27.27 4.5-4.48-.28.26 4.5-4.5-.28.28 4.5-4.48-.27.27 4.48-4.5-.26.26 4.48-4.48-.26.26 4.48-4.48-.26.26 4.5-4.48-.28.26 4.5-4.5-.28.28 4.5-4.5-.27.28 4.48-4.5-.25.27 4.48-4.48-.26.26 4.5-4.47-.28.26 4.48-4.5-.27.27 4.5-4.5-.26.28 4.48-4.5-.26.27 4.48-4.48-.26.26 4.5-4.48-.28.26 4.5-4.5-.28.28 4.5-4.5-.27.28 4.48-4.5-.26.27 4.48-4.47-.26.26 4.47-4.5-.26.27 4.5-4.5-.27.28 4.5-4.5-.27.28 4.48-4.5-.26.27 4.48-4.48-.26.26 4.5-4.48-.28.26 4.5-4.5-.28.28 4.5-4.5-.27.28 4.48-4.5-.26.27 4.47-4.5-.26.27 4.5-4.48-.27.25 4.5-4.5-.28.28 4.5-4.5-.27.28 4.48-4.48-.26.26 4.48-4.48-.26.26 4.48-4.48-.26.26 4.5-4.5-.28.28 4.5-4.5-.27.28 4.47-4.5-.26.27 4.5-4.48-.27.25 4.48-4.48-.25.26 4.5-4.48-.28.26 4.5-4.48-.28.27 4.48-4.5-.26.27 4.48-4.5-.26.27 4.48-4.48-.26.26 4.5-4.48-.28.26 4.5-4.5-.28.28 4.5-4.5-.27.28 4.48-4.5-.25.27 4.48-4.48-.26.26 4.5-4.47-.28.26 4.48-4.5-.27.27 4.5-4.5-.26.28 4.48-4.5-.26.27 4.48-4.48-.26.26 4.5-4.48-.28.26 4.5-4.5-.28.28 4.5-4.5-.27.28 4.48-4.5-.26.27 4.48-4.47-.26.26 4.48-4.5-.27.27 4.5-4.5-.27.28 4.5-4.5-.27.28 4.48-4.5-.26.27 4.48-4.48-.26.26 4.5-4.48-.28.26 4.5-4.5-.28.28 4.5-4.5-.27.28 4.48-4.5-.26.27 4.47-4.5-.26.27 4.5-4.48-.27.25 4.5-4.5-.28.28 4.5-4.5-.27.28 4.48-4.48-.26.26 4.48-4.48-.26.26 4.5-4.48-.28.26 4.5-4.5-.28.28 4.5-4.5-.27.28 4.47-4.5-.26.27 4.5-4.48-.27.25 4.5-4.48-.28.26 4.5-4.48-.28.26 4.5-4.48-.28.27 4.48-4.5-.26.27 4.48-4.5-.26.27 4.48-4.48-.26.26 4.5-4.48-.28.26 4.5-4.5-.28.28 4.5-4.5-.27.27 4.48-4.48-.25.26 4.48-4.48-.26.26 4.5-4.47-.28.26 4.48-4.5-.27.27 4.5-4.5-.26.28 4.48-4.5-.26.27 4.48-4.48-.26.26 4.5-4.48-.28.26 4.5-4.5-.28.28 4.5-4.5-.27.28 4.48-4.5-.26.27 4.48-4.47-.26.26 4.48-4.5-.27.27 4.5-4.5-.27.28 4.5-4.5-.27.28 4.48-4.5-.26.27 4.48-4.48-.26.26 4.48-4.48-.26.26 4.5-4.5-.28.28 4.5-4.5-.27.28 4.48-4.5-.26.27 4.47-4.5-.26.27 4.5-4.48-.27.25 4.5-4.5-.28.28 4.5-4.5-.27.28 4.48-4.48-.26.26 4.48-4.48-.26.26 4.48-4.48-.26.26 4.5-4.48-.28.26 4.5-4.5-.28.28 4.5-4.5-.27.28 4.5-4.5-.27.27 4.5-4.48-.28.26 4.5-4.5-.28.28 4.5-4.48-.28.27 4.48-4.5-.26.26 4.48-4.48-.26.26 4.48-4.48-.26-11.9-11.9L1 635.2l4.5.27-.28-4.5 4.5.27-.28-4.48 4.5.26-.27-4.48 4.48.26-.26-4.48 4.47.26-.26-4.5 4.5.28-.27-4.5 4.5.28-.28-4.5 4.5.27-.27-4.5 4.48.27-.26-4.48 4.48.25-.26-4.5 4.5.28-.28-4.5 4.5.27-.28-4.48 4.5.26-.28-4.48 4.5.26-.27-4.48 4.5.26-.27-4.5 4.5.28-.28-4.5 4.5.28-.28-4.5 4.5.27-.27-4.48 4.48.25-.26-4.48 4.48.26-.26-4.5 4.48.28-.26-4.48 4.5.27-.28-4.5 4.5.26-.27-4.48 4.5.26-.27-4.48 4.48.26-.25-4.5 4.5.28-.28-4.5 4.5.28-.28-4.5 4.48.27-.26-4.48 4.48.26-.26-4.48 4.48.26-.26-4.48 4.5.27-.28-4.5 4.5.27-.28-4.5 4.5.27-.28-4.48 4.5.26-.27-4.48 4.48.26-.26-4.48 4.48.26-.26-4.5 4.48.28-.27-4.5 4.5.27-.27-4.48 4.5.26-.27-4.47 4.48.26-.26-4.5 4.48.27-.26-4.5 4.5.28-.28-4.5 4.5.27-.28-4.48 4.5.26-.27-4.48 4.48.26-.26-4.48 4.47.26-.26-4.5 4.5.28-.27-4.5 4.5.27-.28-4.47 4.5.26-.27-4.5 4.48.27-.26-4.48 4.48.25-.26-4.5 4.5.28-.28-4.5 4.5.27-.28-4.48 4.5.26-.27-4.48 4.47.26-.26-4.48 4.5.26-.27-4.5 4.48.28-.25-4.5 4.5.28-.28-4.5 4.5.27-.28-4.48 4.48.25-.26-4.48 4.48.26-.26-4.5 4.5.28-.28-4.48 4.5.27-.28-4.5 4.5.26-.27-4.48 4.5.26-.27-4.48 4.48.26-.25-4.5 4.48.28-.26-4.5 4.5.28-.28-4.5 4.48.27-.27-4.48 4.5.26-.26-4.48 4.48.26-.26-4.47 4.48.26-.26-4.5 4.5.27-.28-4.5 4.5.27-.28-4.48 4.5.26-.27-4.48 4.48.26-.26-4.5 4.48.28-.26-4.5 4.48.28-.27-4.5 4.5.27-.27-4.48 4.5.26-.27-4.47 4.48.26-.26-4.5 4.48.27-.26-4.5 4.48.28-.26-4.5 4.5.27-.28-4.48 4.5.26-.27-4.48 4.48.26-.26-4.48 4.47.26-.26-4.5 4.5.28-.27-4.5 4.5.27-.28-4.47 4.5.26-.27-4.5 4.48.27-.26-4.48 4.48.25-.26-4.5 4.48.28-.26-4.5 4.5.28-.28-4.48 4.5.26-.28-4.48 4.5.26-.27-4.48 4.5.26-.27-4.5 4.5.28-.28-4.5 4.5.28-.28-4.5 4.5.27-.27-4.48 4.48.25-.26-4.48 4.48.26-.26-4.5 4.48.28-.26-4.48 4.5.27-.28-4.5 4.5.26-.28-4.48 4.5.26-.27-4.48 4.48.26-.25-4.5 4.48.28-.26-4.5 4.5.28-.28-4.5 4.48.27-.27-4.48 4.5.26-.26-4.48 4.48.26-.26-4.48 4.48.27-.26-4.5 4.5.27-.28-4.5 4.5.27-.28-4.48 4.5.26-.27-4.48 4.48.26-.26-4.48 4.48.26-.26-4.5 4.48.28-.27-4.5 4.5.27-.27-4.48 4.5.26-.27-4.47 4.48.26-.26-4.5 4.48.27-.26-4.5 4.5.28-.28-4.5 4.5.27-.28-4.48 4.5.26-.27-4.48 4.48.26-.26-4.48 4.47.26-.26-4.5 4.5.28-.27-4.5 4.5.28-.28-4.5 4.5.27-.27-4.5 4.48.27-.26-4.48 4.48.25-.26-4.5 4.5.28-.28-4.5 4.5.28-.28-4.48 4.5.26-.28-4.48 4.5.26-.27-4.48 4.5.26-.27-4.5 4.48.28-.25-4.5 4.5.28-.28-4.5 4.5.27-.27-4.48 4.48.25-.26-4.48 4.48.26-.26-4.5 4.48.28-.26-4.48 4.5.27-.28-4.5 4.5.26 11.88 11.9.26 4.47zm0-54l-4.5-.25.27 4.48-4.48-.26.26 4.5-4.48-.28.26 4.5-4.5-.28.28 4.5-4.5-.27.28 4.48-4.5-.26.27 4.47-4.5-.26.27 4.5-4.48-.27.25 4.5-4.5-.28.28 4.5-4.5-.27.28 4.48-4.48-.26.26 4.48-4.48-.26.26 4.48-4.48-.26.26 4.5-4.48-.28.26 4.5-4.5-.27.28 4.47-4.5-.26.28 4.5-4.5-.27.27 4.48-4.48-.25.26 4.5-4.5-.28.28 4.5-4.48-.28.27 4.48-4.5-.26.26 4.48-4.48-.26.26 4.48-4.48-.26.26 4.5-4.48-.28.26 4.5-4.5-.28.28 4.5-4.5-.27.28 4.48-4.5-.25.27 4.48-4.48-.26.26 4.5-4.47-.28.26 4.48-4.5-.26.27 4.48-4.5-.26.28 4.48-4.5-.26.27 4.48-4.48-.26.26 4.5-4.48-.28.26 4.5-4.5-.28.28 4.5-4.5-.27.28 4.48-4.5-.26.27 4.48-4.47-.26.26 4.47-4.5-.26.27 4.5-4.5-.27.28 4.5-4.5-.27.28 4.48-4.5-.26.27 4.48-4.48-.26.26 4.5-4.48-.28.26 4.5-4.5-.28.28 4.5-4.5-.27.28 4.48-4.5-.26.27 4.47-4.5-.26.27 4.5-4.48-.27.25 4.5-4.5-.28.28 4.5-4.5-.27.28 4.48-4.48-.26.26 4.48-4.48-.26.26 4.48-4.48-.26.26 4.5-4.5-.28.28 4.5-4.5-.28.28 4.5-4.5-.27.27 4.5-4.48-.27.25 4.48-4.48-.25.26 4.5-4.48-.28.26 4.5-4.48-.28.27 4.48-4.5-.26.27 4.48-4.5-.26.27 4.48-4.48-.26.26 4.5-4.48-.28.26 4.5-4.5-.28.28 4.5-4.5-.27.28 4.48-4.5-.25.27 4.48-4.48-.26.26 4.5-4.47-.28.26 4.48-4.5-.27.27 4.5-4.5-.26.28 4.48-4.5-.26.27 4.48-4.48-.26.26 4.5-4.48-.28.26 4.5-4.5-.28.28 4.5-4.5-.27.28 4.48-4.5-.26.27 4.48-4.47-.26.26 4.48-4.5-.27.27 4.5-4.5-.27.28 4.5-4.5-.27.28 4.48-4.5-.26.27 4.48-4.48-.26.26 4.5-4.48-.28.26 4.5-4.5-.28.28 4.5-4.5-.27.28 4.48-4.5-.26.27 4.47-4.5-.26.27 4.5-4.48-.27.25 4.5-4.5-.28.28 4.5-4.5-.27.28 4.48-4.48-.26.26 4.48-4.48-.26.26 4.48-4.48-.26.26 4.5-4.5-.28.28 4.5-4.5-.28.28 4.5-4.5-.27.27 4.5-4.48-.27.25 4.48-4.48-.25.26 4.5-4.48-.28.26 4.5-4.48-.28.27 4.48-4.5-.26.27 4.48-4.5-.26.27 4.48-4.48-.26.26 4.5-4.48-.28.26 4.5-4.5-.28.28 4.5-4.5-.27.27 4.48-4.48-.25.26 4.5-4.48-.28.26 4.5-4.47-.28.26 4.48-4.5-.27.27 4.5-4.5-.26.28 4.48-4.5-.26.27 4.48-4.48-.26.26 4.5-4.48-.28.26 4.5-4.5-.28.28 4.5-4.5-.27.28 4.48-4.5-.26.27 4.48-4.47-.26.26 4.48-4.5-.27.27 4.5-4.5-.27.28 4.5-4.5-.27.28 4.48-4.5-.26.27 4.48-4.48-.26.26 4.5-4.48-.28.26 4.5-4.5-.28.28 4.5-4.5-.27.28 4.48-4.5-.26.27 4.47-4.5-.26.27 4.5-4.48-.27.25 4.5-4.5-.28.28 4.5-4.5-.28.28 4.5-4.48-.27.26 4.48-4.48-.26.26 4.48-4.48-.26.26 4.5-4.48-.28.26 4.5-4.5-.28.28 4.5-4.5-.27.28 4.5-4.5-.27.27 4.5-4.48-.28.26 4.5-4.5-.28.28 4.5-4.48-.28.27 4.48-4.5-.26.26 4.48-4.48-.26.26 4.48-4.48-.26-11.9-11.9L1 581.2l4.5.27-.28-4.5 4.5.27-.28-4.48 4.5.26-.27-4.48 4.48.26-.26-4.48 4.47.26-.26-4.5 4.5.28-.27-4.5 4.5.27-.28-4.47 4.5.26-.27-4.5 4.48.27-.26-4.48 4.48.25-.26-4.5 4.5.28-.28-4.5 4.5.27-.28-4.48 4.5.26-.28-4.48 4.5.26-.27-4.48 4.5.26-.27-4.5 4.5.28-.28-4.5 4.5.28-.28-4.5 4.5.27-.27-4.48 4.48.25-.26-4.48 4.48.26-.26-4.5 4.48.28-.26-4.48 4.5.27-.28-4.5 4.5.26-.27-4.48 4.5.26-.27-4.48 4.48.26-.25-4.5 4.5.28-.28-4.5 4.5.28-.28-4.5 4.48.27-.26-4.48 4.48.26-.26-4.48 4.48.26-.26-4.48 4.5.27-.28-4.5 4.5.27-.28-4.5 4.5.27-.28-4.48 4.5.26-.27-4.48 4.48.26-.26-4.48 4.48.26-.26-4.5 4.48.28-.27-4.5 4.5.27-.27-4.48 4.5.26-.27-4.47 4.48.26-.26-4.5 4.48.27-.26-4.5 4.5.28-.28-4.5 4.5.27-.28-4.48 4.5.26-.27-4.48 4.48.26-.26-4.48 4.47.26-.26-4.5 4.5.28-.27-4.5 4.5.27-.28-4.47 4.5.26-.27-4.5 4.48.27-.26-4.48 4.48.25-.26-4.5 4.5.28-.28-4.5 4.5.27-.28-4.48 4.5.26-.27-4.48 4.47.26-.26-4.48 4.5.26-.27-4.5 4.48.28-.25-4.5 4.5.28-.28-4.5 4.5.27-.28-4.48 4.48.25-.26-4.48 4.48.26-.26-4.5 4.5.28-.28-4.48 4.5.27-.28-4.5 4.5.26-.27-4.48 4.5.26-.27-4.48 4.48.26-.25-4.5 4.48.28-.26-4.5 4.5.28-.28-4.5 4.48.27-.27-4.48 4.5.26-.26-4.48 4.48.26-.26-4.47 4.48.26-.26-4.5 4.5.27-.28-4.5 4.5.27-.28-4.48 4.5.26-.27-4.48 4.48.26-.26-4.5 4.48.28-.26-4.5 4.48.28-.27-4.5 4.5.27-.27-4.48 4.5.26-.27-4.47 4.48.26-.26-4.5 4.48.27-.26-4.5 4.48.28-.26-4.5 4.5.27-.28-4.48 4.5.26-.27-4.48 4.48.26-.26-4.48 4.47.26-.26-4.5 4.5.28-.27-4.5 4.5.27-.28-4.47 4.5.26-.27-4.5 4.48.27-.26-4.48 4.48.25-.26-4.5 4.48.28-.26-4.5 4.5.28-.28-4.48 4.5.26-.28-4.48 4.5.26-.27-4.48 4.5.26-.27-4.5 4.5.28-.28-4.5 4.5.27-.28-4.5 4.5.27-.27-4.48 4.48.25-.26-4.48 4.48.26-.26-4.5 4.48.28-.26-4.48 4.5.27-.28-4.5 4.5.26-.28-4.48 4.5.26-.27-4.48 4.48.26-.25-4.5 4.48.28-.26-4.5 4.5.28-.28-4.5 4.48.27-.27-4.48 4.5.26-.26-4.48 4.48.26-.26-4.48 4.48.27-.26-4.5 4.5.27-.28-4.5 4.5.27-.28-4.48 4.5.26-.27-4.48 4.48.26-.26-4.5 4.48.28-.26-4.5 4.48.28-.27-4.5 4.5.27-.27-4.48 4.5.26-.27-4.47 4.48.26-.26-4.5 4.48.27-.26-4.5 4.5.28-.28-4.5 4.5.27-.28-4.48 4.5.26-.27-4.48 4.48.26-.26-4.48 4.47.26-.26-4.5 4.5.28-.27-4.5 4.5.28-.28-4.5 4.5.27-.27-4.5 4.48.27-.26-4.48 4.48.25-.26-4.5 4.5.28-.28-4.5 4.5.27-.28-4.48 4.5.26-.28-4.48 4.5.26-.27-4.48 4.5.26-.27-4.5 4.48.28-.25-4.5 4.5.28-.28-4.5 4.5.27-.27-4.48 4.48.25-.26-4.48 4.48.26-.26-4.5 4.48.28-.26-4.48 4.5.27-.28-4.5 4.5.26 11.88 11.9.26 4.47zm-1-53l-4.5-.25.27 4.48-4.48-.26.26 4.5-4.48-.28.26 4.5-4.5-.28.28 4.5-4.5-.27.28 4.48-4.5-.26.27 4.47-4.5-.26.27 4.5-4.48-.27.25 4.5-4.5-.28.28 4.5-4.5-.27.28 4.48-4.48-.26.26 4.48-4.48-.26.26 4.48-4.48-.26.26 4.5-4.48-.28.26 4.5-4.5-.28.28 4.5-4.5-.27.28 4.5-4.5-.27.27 4.5-4.48-.28.26 4.5-4.5-.28.28 4.5-4.48-.28.27 4.48-4.5-.26.26 4.48-4.48-.26.26 4.48-4.48-.26.26 4.5-4.48-.28.26 4.5-4.5-.28.28 4.5-4.5-.27.28 4.48-4.5-.25.27 4.48-4.48-.26.26 4.5-4.47-.28.26 4.48-4.5-.27.27 4.5-4.5-.26.28 4.48-4.5-.26.27 4.48-4.48-.26.26 4.5-4.48-.28.26 4.5-4.5-.28.28 4.5-4.5-.27.28 4.48-4.5-.26.27 4.48-4.47-.26.26 4.47-4.5-.26.27 4.5-4.5-.27.28 4.5-4.5-.27.28 4.48-4.5-.26.27 4.48-4.48-.26.26 4.5-4.48-.28.26 4.5-4.5-.28.28 4.5-4.5-.27.28 4.48-4.5-.26.27 4.47-4.5-.26.27 4.5-4.48-.27.25 4.5-4.5-.28.28 4.5-4.5-.27.28 4.48-4.48-.26.26 4.48-4.48-.26.26 4.5-4.48-.28.26 4.5-4.5-.28.28 4.5-4.5-.28.28 4.5-4.5-.27.27 4.5-4.48-.27.25 4.48-4.48-.25.26 4.5-4.48-.28.26 4.5-4.48-.28.27 4.48-4.5-.26.27 4.48-4.5-.26.27 4.48-4.48-.26.26 4.5-4.48-.28.26 4.5-4.5-.28.28 4.5-4.5-.27.28 4.48-4.5-.25.27 4.48-4.48-.26.26 4.5-4.47-.28.26 4.48-4.5-.27.27 4.5-4.5-.26.28 4.48-4.5-.26.27 4.48-4.48-.26.26 4.5-4.48-.28.26 4.5-4.5-.28.28 4.5-4.5-.27.28 4.48-4.5-.26.27 4.48-4.47-.26.26 4.48-4.5-.27.27 4.5-4.5-.27.28 4.5-4.5-.27.28 4.48-4.5-.26.27 4.48-4.48-.26.26 4.5-4.48-.28.26 4.5-4.5-.28.28 4.5-4.5-.27.28 4.48-4.5-.26.27 4.47-4.5-.26.27 4.5-4.48-.27.25 4.5-4.5-.28.28 4.5-4.5-.28.28 4.5-4.48-.27.26 4.48-4.48-.26.26 4.48-4.48-.26.26 4.5-4.5-.28.28 4.5-4.5-.28.28 4.5-4.5-.27.27 4.5-4.48-.27.25 4.48-4.48-.25.26 4.5-4.48-.28.26 4.5-4.48-.28.27 4.48-4.5-.26.27 4.48-4.5-.26.27 4.48-4.48-.26.26 4.5-4.48-.28.26 4.5-4.5-.28.28 4.5-4.5-.27.27 4.48-4.48-.25.26 4.48-4.48-.26.26 4.5-4.47-.28.26 4.48-4.5-.27.27 4.5-4.5-.26.28 4.48-4.5-.26.27 4.48-4.48-.26.26 4.5-4.48-.28.26 4.5-4.5-.28.28 4.5-4.5-.27.28 4.48-4.5-.26.27 4.48-4.47-.26.26 4.48-4.5-.27.27 4.5-4.5-.27.28 4.5-4.5-.27.28 4.48-4.5-.26.27 4.48-4.48-.26.26 4.5-4.48-.28.26 4.5-4.5-.28.28 4.5-4.5-.27.28 4.48-4.5-.26.27 4.47-4.5-.26.27 4.5-4.48-.27.25 4.5-4.5-.28.28 4.5-4.5-.27.28 4.48-4.48-.26.26 4.48-4.48-.26.26 4.5-4.48-.28.26 4.5-4.48-.28.26 4.5-4.5-.27.28 4.47-4.5-.26.28 4.5-4.5-.27.27 4.5-4.48-.28.26 4.5-4.5-.28.28 4.5-4.48-.27.27 4.48-4.5-.26.26 4.48-4.48-.26.26 4.48-4.48-.26-11.9-11.9L0 528.2l4.5.27-.28-4.5 4.5.27-.28-4.48 4.5.26-.27-4.48 4.48.26-.26-4.48 4.47.26-.26-4.5 4.5.28-.27-4.5 4.5.27-.28-4.47 4.5.26-.27-4.5 4.48.27-.26-4.5 4.48.28-.26-4.5 4.5.28-.28-4.5 4.5.27-.28-4.48 4.5.26-.28-4.48 4.5.26-.27-4.48 4.5.26-.27-4.5 4.48.28-.25-4.5 4.5.28-.28-4.5 4.5.27-.27-4.48 4.48.25-.26-4.48 4.48.26-.26-4.5 4.48.28-.26-4.48 4.5.27-.28-4.5 4.5.26-.28-4.48 4.5.26-.27-4.48 4.48.26-.25-4.5 4.5.28-.28-4.5 4.5.28-.28-4.5 4.48.27-.27-4.48 4.5.26-.26-4.48 4.48.26-.26-4.48 4.5.27-.28-4.5 4.5.27-.28-4.5 4.5.27-.28-4.48 4.5.26-.27-4.48 4.48.26-.26-4.5 4.48.28-.26-4.5 4.48.28-.27-4.5 4.5.27-.27-4.48 4.5.26-.27-4.47 4.48.26-.26-4.5 4.48.27-.26-4.5 4.5.28-.28-4.5 4.5.27-.28-4.48 4.5.26-.27-4.48 4.48.26-.26-4.48 4.47.26-.26-4.5 4.5.28-.27-4.5 4.5.27-.28-4.47 4.5.26-.27-4.5 4.48.27-.26-4.48 4.48.25-.26-4.5 4.5.28-.28-4.5 4.5.27-.28-4.48 4.5.26-.27-4.48 4.47.26-.26-4.48 4.5.26-.27-4.5 4.48.28-.25-4.5 4.5.28-.28-4.5 4.5.27-.28-4.48 4.48.25-.26-4.48 4.48.26-.26-4.5 4.5.28-.28-4.48 4.5.26-.28-4.48 4.5.26-.27-4.48 4.5.26-.27-4.48 4.48.26-.25-4.5 4.48.28-.26-4.5 4.5.28-.28-4.5 4.48.27-.27-4.48 4.5.26-.26-4.48 4.48.26-.26-4.48 4.48.27-.26-4.5 4.5.27-.28-4.5 4.5.27-.28-4.48 4.5.26-.27-4.48 4.48.26-.26-4.5 4.48.28-.26-4.5 4.48.28-.27-4.5 4.5.27-.27-4.48 4.5.26-.27-4.47 4.48.26-.26-4.5 4.48.27-.26-4.5 4.48.28-.26-4.5 4.5.27-.28-4.48 4.5.26-.27-4.48 4.48.26-.26-4.48 4.47.26-.26-4.5 4.5.28-.27-4.5 4.5.27-.28-4.47 4.5.26-.27-4.5 4.48.27-.26-4.48 4.48.25-.26-4.5 4.48.28-.26-4.5 4.5.28-.28-4.48 4.5.26-.28-4.48 4.5.26-.27-4.48 4.5.26-.27-4.5 4.5.28-.28-4.5 4.5.27-.28-4.5 4.5.27-.27-4.48 4.48.25-.26-4.48 4.48.26-.26-4.5 4.48.28-.26-4.48 4.5.27-.28-4.5 4.5.26-.28-4.48 4.5.26-.27-4.48 4.48.26-.25-4.5 4.48.28-.26-4.5 4.5.28-.28-4.5 4.48.27-.27-4.48 4.5.26-.26-4.48 4.48.26-.26-4.48 4.48.27-.26-4.5 4.5.27-.28-4.5 4.5.27-.28-4.48 4.5.26-.27-4.48 4.48.26-.26-4.48 4.48.26-.26-4.5 4.48.28-.27-4.5 4.5.27-.27-4.48 4.5.26-.27-4.47 4.48.26-.26-4.5 4.48.27-.26-4.5 4.5.28-.28-4.5 4.5.27-.28-4.48 4.5.26-.27-4.48 4.48.26L536.2-8l4.47.26-.26-4.5 4.5.28-.27-4.5 4.5.28-.28-4.5 4.5.27-.27-4.5 4.48.27-.26-4.48 4.48.25-.26-4.5 4.5.28-.28-4.5 4.5.27-.28-4.48 4.5.26-.28-4.48 4.5.26-.27-4.48 4.5.26-.27-4.5 4.48.28-.25-4.5 4.5.28-.28-4.5 4.5.27-.27-4.48 4.48.25-.26-4.48 4.48.26-.26-4.5 4.48.28-.26-4.48 4.5.27-.28-4.5 4.5.26 11.88 11.9.26 4.47z"/>
</svg>
