<svg xmlns="http://www.w3.org/2000/svg" xmlns:xlink="http://www.w3.org/1999/xlink" viewBox="0 0 1920 78">
  <defs>
    <path id="b" d="M0 0v65.73l5.45 6.14 5.46-6.14 5.47 6.14 5.46-6.14 5.45 6.14 5.46-6.14 5.45 6.14 5.45-6.14 5.45 6.14 5.45-6.14L60 71.87l5.46-6.14 5.45 6.14 5.47-6.14 5.46 6.14 5.45-6.14 5.46 6.14 5.45-6.14 5.45 6.14 5.45-6.14 5.44 6.14 5.46-6.14 5.45 6.14 5.46-6.14 5.47 6.14 5.46-6.14 5.45 6.14 5.46-6.14 5.45 6.14 5.45-6.14 5.45 6.14 5.45-6.14 5.45 6.14 5.46-6.14 5.45 6.14 5.47-6.14 5.46 6.14 5.45-6.14 5.46 6.14 5.45-6.14 5.45 6.14 5.45-6.14 5.45 6.14 5.45-6.14 5.46 6.14 5.45-6.14 5.47 6.14 5.46-6.14 5.45 6.14 5.46-6.14 5.45 6.14 5.45-6.14 5.45 6.14 5.44-6.14 5.46 6.14 5.46-6.14 5.45 6.14 5.47-6.14 5.46 6.14 5.45-6.14 5.46 6.14 5.45-6.14 5.45 6.14 5.45-6.14 5.44 6.14 5.46-6.14 5.46 6.14 5.45-6.14 5.47 6.14 5.46-6.14 5.45 6.14 5.46-6.14 5.45 6.14 5.45-6.14 5.45 6.14 5.45-6.14 5.45 6.14 5.45-6.14 5.46 6.14 5.47-6.14 5.46 6.14 5.45-6.14 5.46 6.14 5.45-6.14 5.45 6.14 5.45-6.14 5.45 6.14 5.45-6.14 5.45 6.14 5.46-6.14 5.47 6.14 5.46-6.14 5.45 6.14 5.46-6.14 5.45 6.14 5.45-6.14 5.45 6.14 5.45-6.14 5.45 6.14 5.45-6.14 5.46 6.14 5.47-6.14 5.46 6.14 5.45-6.14 5.46 6.14 5.45-6.14 5.45 6.14 5.45-6.14 5.44 6.14 5.46-6.14 5.45 6.14 5.46-6.14 5.47 6.14 5.46-6.14 5.45 6.14 5.46-6.14 5.45 6.14 5.45-6.14 5.45 6.14 5.44-6.14 5.46 6.14 5.45-6.14 5.46 6.14 5.47-6.14 5.46 6.14 5.45-6.14 5.46 6.14 5.45-6.14 5.45 6.14 5.45-6.14 5.44 6.14 5.46-6.14 5.46 6.14 5.45-6.14 5.47 6.14 5.46-6.14 5.45 6.14 5.46-6.14 5.45 6.14 5.45-6.14 5.45 6.14 5.44-6.14 5.46 6.14 5.45-6.14 5.46 6.14 5.47-6.14 5.46 6.14 5.45-6.14 5.46 6.14 5.45-6.14 5.45 6.14 5.45-6.14 5.44 6.14 5.46-6.14 5.45 6.14 5.46-6.14 5.47 6.14 5.46-6.14 5.45 6.14 5.46-6.14 5.45 6.14 5.45-6.14 5.45 6.14 5.45-6.14 5.45 6.14 5.46-6.14 5.45 6.14 5.47-6.14 5.46 6.14 5.45-6.14 5.46 6.14 5.45-6.14 5.45 6.14 5.45-6.14 5.44 6.14 5.46-6.14 5.45 6.14 5.46-6.14 5.47 6.14 5.46-6.14 5.45 6.14 5.46-6.14 5.45 6.14 5.45-6.14 5.45 6.14 5.44-6.14 5.46 6.14 5.46-6.14 5.45 6.14 5.47-6.14 5.46 6.14 5.45-6.14 5.46 6.14 5.45-6.14 5.45 6.14 5.45-6.14 5.44 6.14 5.46-6.14 5.45 6.14 5.46-6.14 5.47 6.14 5.46-6.14 5.45 6.14 5.46-6.14 5.45 6.14 5.45-6.14 5.45 6.14 5.44-6.14 5.46 6.14 5.45-6.14 5.46 6.14 5.47-6.14 5.46 6.14 5.45-6.14 5.46 6.14 5.45-6.14 5.45 6.14 5.45-6.14 5.44 6.14 5.46-6.14 5.45 6.14 5.46-6.14 5.47 6.14 5.46-6.14 5.45 6.14 5.46-6.14 5.45 6.14 5.45-6.14 5.45 6.14 5.44-6.14 5.46 6.14 5.45-6.14 5.46 6.14 5.47-6.14 5.46 6.14 5.45-6.14 5.46 6.14 5.45-6.14 5.45 6.14 5.45-6.14 5.44 6.14 5.46-6.14 5.46 6.14 5.45-6.14 5.47 6.14 5.46-6.14 5.45 6.14 5.46-6.14 5.45 6.14 5.45-6.14 5.45 6.14 5.44-6.14 5.46 6.14 5.45-6.14 5.46 6.14 5.47-6.14 5.46 6.14 5.45-6.14 5.46 6.14 5.45-6.14 5.45 6.14 5.45-6.14 5.44 6.14 5.46-6.14 5.46 6.14 5.45-6.14 5.47 6.14 5.46-6.14 5.45 6.14 5.46-6.14 5.45 6.14 5.45-6.14 5.45 6.14 5.44-6.14 5.46 6.14 5.45-6.14 5.46 6.14 5.47-6.14 5.46 6.14 5.45-6.14 5.46 6.14 5.45-6.14 5.45 6.14 5.45-6.14 5.44 6.14 5.46-6.14 5.45 6.14 5.46-6.14 5.47 6.14 5.46-6.14 5.45 6.14 5.46-6.14 5.45 6.14 5.45-6.14 5.45 6.14 5.44-6.14 5.46 6.14 5.45-6.14 5.46 6.14 5.47-6.14 5.46 6.14 5.45-6.14 5.46 6.14 5.45-6.14 5.45 6.14 5.45-6.14 5.44 6.14 5.46-6.14 5.45 6.14 5.46-6.14 5.47 6.14 5.46-6.14 5.45 6.14 5.46-6.14 5.45 6.14 5.45-6.14 5.45 6.14 5.44-6.14 5.46 6.14 5.45-6.14 5.46 6.14 5.47-6.14 5.46 6.14 5.45-6.14 5.46 6.14 5.45-6.14 5.45 6.14 5.45-6.14 5.44 6.14 5.46-6.14 5.46 6.14 5.45-6.14 5.47 6.14 5.46-6.14 5.45 6.14 5.46-6.14 5.45 6.14 5.45-6.14 5.45 6.14 5.44-6.14 5.46 6.14 5.45-6.14 5.46 6.14 5.47-6.14 5.46 6.14 5.45-6.14 5.46 6.14 5.45-6.14 5.45 6.14 5.45-6.14 5.45 6.14 5.45-6.14V0z"/>
    <filter id="a" width="100.7%" height="119.5%" x="-.4%" y="-7%" filterUnits="objectBoundingBox">
      <feOffset dy="2" in="SourceAlpha" result="shadowOffsetOuter1"/>
      <feGaussianBlur in="shadowOffsetOuter1" result="shadowBlurOuter1" stdDeviation="2"/>
      <feColorMatrix in="shadowBlurOuter1" values="0 0 0 0 0 0 0 0 0 0 0 0 0 0 0 0 0 0 0.2 0"/>
    </filter>
  </defs>
  <g fill="none" fill-rule="evenodd">
    <use fill="#000" filter="url(#a)" xlink:href="#b"/>
    <use fill="#FFF" xlink:href="#b"/>
  </g>
</svg>
